<svg width="160" height="36" viewBox="0 0 160 36" fill="none" xmlns="http://www.w3.org/2000/svg" aria-label="TokenStar">
  <g transform="translate(2, 2)">
    <rect width="32" height="32" rx="8" fill="url(#logo-bg)"/>
    <circle cx="16" cy="16" r="11.5" stroke="rgba(255,255,255,0.25)" stroke-width="1.2" fill="none"/>
    <path d="M16 5.5 L17.6 12.4 L24.5 10.5 L19.8 16 L24.5 21.5 L17.6 19.6 L16 26.5 L14.4 19.6 L7.5 21.5 L12.2 16 L7.5 10.5 L14.4 12.4 Z" fill="white" opacity="0.95"/>
    <circle cx="16" cy="16" r="2.8" fill="url(#logo-core)"/>
    <circle cx="7" cy="7" r="1.2" fill="rgba(255,255,255,0.45)"/>
    <circle cx="25" cy="7" r="1.2" fill="rgba(255,255,255,0.45)"/>
    <circle cx="7" cy="25" r="1.2" fill="rgba(255,255,255,0.3)"/>
    <circle cx="25" cy="25" r="1.2" fill="rgba(255,255,255,0.3)"/>
  </g>
  <text x="42" y="24" font-family="Inter, system-ui, -apple-system, sans-serif" font-size="19" font-weight="700" letter-spacing="-0.3" fill="currentColor">Token</text>
  <text x="103" y="24" font-family="Inter, system-ui, -apple-system, sans-serif" font-size="19" font-weight="700" letter-spacing="-0.3" fill="#3B82F6">Star</text>
  <defs>
    <linearGradient id="logo-bg" x1="0" y1="0" x2="32" y2="32" gradientUnits="userSpaceOnUse">
      <stop offset="0%" stop-color="#2563EB"/>
      <stop offset="100%" stop-color="#7C3AED"/>
    </linearGradient>
    <linearGradient id="logo-core" x1="13" y1="13" x2="19" y2="19" gradientUnits="userSpaceOnUse">
      <stop offset="0%" stop-color="#93C5FD"/>
      <stop offset="100%" stop-color="#C4B5FD"/>
    </linearGradient>
  </defs>
</svg>
